<?xml version="1.0" encoding="utf-8"?>
<!-- Generator: Adobe Illustrator 24.0.0, SVG Export Plug-In . SVG Version: 6.00 Build 0)  -->
<svg version="1.1" id="Layer_1" xmlns="http://www.w3.org/2000/svg" xmlns:xlink="http://www.w3.org/1999/xlink" x="0px" y="0px"
	 viewBox="0 0 600 175.6" style="enable-background:new 0 0 600 175.6;" xml:space="preserve">
<style type="text/css">
	.st0{fill:#575756;}
	.st1{fill:#98C11D;}
</style>
<g>
	<path class="st0" d="M49.9,121.5c0-5.8-1.7-10.4-5.2-13.8c-3.4-3.5-7.7-5.2-12.8-5.2c-5.1,0-9.4,1.7-12.8,5.2
		c-3.4,3.5-5.1,8.1-5.1,13.8v45.6c0,2.6-0.7,4.7-2.2,6.1c-1.5,1.4-3.1,2.1-4.8,2.1s-3.3-0.7-4.8-2.1c-1.5-1.4-2.2-3.4-2.2-6.1V95.4
		c0-2.4,0.6-4.3,1.9-5.7c1.3-1.4,2.7-2.2,4.4-2.4c1.7-0.2,3.2,0.1,4.7,1c1.5,0.9,2.5,2.3,2.9,4.2c2.7-1.8,5.5-3,8.6-3.8
		c3.1-0.8,6.2-1.2,9.5-1.2c4.6,0,9.2,0.9,13.6,2.7c4.4,1.8,8.2,4.6,11.3,8.5c3.2-3.9,7-6.7,11.4-8.5c4.4-1.8,9-2.7,13.6-2.7
		c4,0,7.9,0.6,11.7,1.9c3.8,1.3,7.2,3.3,10.2,6s5.4,6.2,7.3,10.5c1.9,4.3,2.8,9.5,2.8,15.6v45.6c0,2.6-0.7,4.7-2.2,6.1
		c-1.5,1.4-3.1,2.1-4.8,2.1s-3.3-0.7-4.8-2.1c-1.5-1.4-2.2-3.4-2.2-6.1v-45.6c0-5.8-1.7-10.4-5.2-13.8c-3.4-3.5-7.7-5.2-12.8-5.2
		c-5.1,0-9.3,1.7-12.8,5.2c-3.4,3.5-5.1,8.1-5.1,13.8v45.6c0,2.6-0.7,4.6-2.2,6c-1.5,1.3-3.1,2-4.8,2s-3.3-0.7-4.8-2s-2.2-3.3-2.2-6
		L49.9,121.5L49.9,121.5z"/>
	<path class="st0" d="M136.5,138.8c0.8,3.4,2.1,6.5,3.8,9.2s3.9,5,6.4,6.9c2.5,1.9,5.2,3.3,8.3,4.3c3,1,6.2,1.5,9.5,1.5
		c4.6,0,9.2-0.9,13.6-2.8c4.4-1.9,8-4.7,10.6-8.5c1.4-2,3.1-3.1,5.1-3.5c2-0.3,3.7,0,5.2,0.9c1.5,0.9,2.5,2.3,3,4.1
		c0.5,1.8,0,3.8-1.4,6.1c-3.9,5.9-9,10.4-15.3,13.7c-6.3,3.3-13.3,4.9-20.9,4.9c-6,0-11.6-1.1-16.9-3.4c-5.3-2.3-10-5.4-13.9-9.4
		s-7.1-8.6-9.4-13.9c-2.3-5.3-3.4-11-3.4-17.1s1.2-11.8,3.5-17.2c2.3-5.4,5.5-10,9.5-14c4-4,8.6-7.1,13.9-9.4
		c5.3-2.3,10.9-3.4,16.8-3.4c6.1,0,11.8,1.1,17.2,3.4c5.4,2.3,10,5.4,14,9.4c4,4,7.1,8.6,9.5,13.9c2.3,5.3,3.5,11,3.5,17.1
		c0,1.9-0.7,3.5-2.1,5c-1.4,1.4-3.5,2.2-6.2,2.2L136.5,138.8L136.5,138.8z M193.8,124.5c-0.9-3.4-2.3-6.5-4.2-9.1
		c-1.9-2.7-4.2-4.9-6.8-6.8c-2.6-1.9-5.4-3.3-8.5-4.3c-3.1-1-6.3-1.5-9.6-1.5s-6.5,0.5-9.5,1.5c-3,1-5.7,2.4-8.2,4.3
		c-2.5,1.9-4.6,4.2-6.4,6.8c-1.8,2.6-3.1,5.7-3.8,9.1H193.8z"/>
	<path class="st0" d="M288.5,68.4c0-2.7,0.8-4.7,2.2-6.1c1.5-1.4,3.1-2.1,4.8-2.1c1.7,0,3.3,0.7,4.8,2.1c1.5,1.4,2.2,3.4,2.2,6.1
		v98.9c0,2.6-0.8,4.7-2.2,6.1c-1.5,1.4-3.1,2.1-4.8,2.1c-1.7,0-3.3-0.7-4.8-2.1s-2.2-3.4-2.2-6.1v-2.8c-3.8,3.5-8.1,6.3-12.9,8.2
		c-4.9,1.9-10.1,2.9-15.8,2.9c-6.2,0-12-1.1-17.3-3.4c-5.4-2.3-10-5.4-14-9.4c-4-4-7.1-8.6-9.4-13.9c-2.3-5.3-3.4-11-3.4-17.1
		s1.1-11.8,3.4-17.2c2.3-5.4,5.4-10,9.4-14c4-4,8.6-7.1,14-9.4c5.4-2.3,11.1-3.4,17.3-3.4c5.6,0,10.9,1,15.8,2.9
		c4.9,1.9,9.2,4.7,12.9,8.2V68.4z M259.8,160.6c3.8,0,7.4-0.7,10.9-2c3.5-1.3,6.5-3.2,9.2-5.7c2.6-2.5,4.8-5.5,6.3-9
		s2.3-7.6,2.3-12.1c0-4.4-0.8-8.4-2.3-12c-1.5-3.6-3.6-6.7-6.3-9.2c-2.7-2.6-5.7-4.5-9.2-5.8c-3.5-1.3-7.1-2-10.9-2
		c-3.9,0-7.6,0.7-11.2,2c-3.6,1.3-6.8,3.3-9.5,5.8c-2.8,2.5-5,5.6-6.7,9.2s-2.6,7.6-2.6,12c0,4.5,0.9,8.6,2.6,12.1
		c1.7,3.5,4,6.6,6.7,9c2.8,2.5,5.9,4.4,9.5,5.7C252.2,160,255.9,160.6,259.8,160.6"/>
	<path class="st0" d="M318.2,95.8c0-2.7,0.7-4.7,2.2-6.1c1.5-1.4,3.1-2.1,4.8-2.1s3.3,0.7,4.8,2.1c1.5,1.4,2.2,3.4,2.2,6.1v71.7
		c0,2.6-0.8,4.7-2.2,6.1c-1.5,1.4-3.1,2.1-4.8,2.1s-3.3-0.7-4.8-2.1c-1.5-1.4-2.2-3.4-2.2-6.1V95.8z"/>
	<path class="st1" d="M427.7,106.4c1.4,2.2,1.9,4.3,1.4,6.1s-1.5,3.3-3,4.2c-1.5,0.9-3.2,1.3-5.2,1c-2-0.3-3.7-1.4-5.1-3.4
		c-2.6-3.9-6.2-6.8-10.5-8.7s-8.9-2.9-13.7-2.9c-3.9,0-7.5,0.7-11,2c-3.4,1.3-6.5,3.3-9.1,5.8c-2.6,2.6-4.8,5.6-6.3,9.2
		c-1.5,3.6-2.3,7.6-2.3,12c0,4.5,0.8,8.6,2.3,12.1c1.5,3.5,3.6,6.6,6.3,9c2.6,2.5,5.7,4.4,9.1,5.7c3.4,1.3,7.1,2,11,2
		c4.6,0,9.2-0.9,13.6-2.8c4.4-1.9,8-4.7,10.6-8.5c1.4-2,3.1-3.1,5.1-3.5c2-0.3,3.7,0,5.2,0.9c1.5,0.9,2.5,2.3,3,4.1
		c0.5,1.8,0,3.8-1.4,6.1c-3.8,5.9-8.8,10.4-15.2,13.7c-6.4,3.3-13.4,4.9-21,4.9c-6,0-11.6-1.1-16.9-3.4c-5.3-2.3-10-5.4-13.9-9.4
		s-7.1-8.6-9.4-13.9c-2.3-5.3-3.4-11-3.4-17.1c0-6.1,1.1-11.8,3.4-17.2c2.3-5.4,5.4-10,9.4-14c4-4,8.6-7.1,13.9-9.4
		c5.3-2.3,11-3.4,16.9-3.4c7.6,0,14.6,1.6,21,4.9C418.9,96,423.9,100.5,427.7,106.4"/>
	<path class="st1" d="M450.4,175.4c-0.4,0-1.5-0.3-3.2-0.8c-1.7-0.6-3.5-1.9-5.4-4.1s-3.6-5.4-5.1-9.7c-1.5-4.3-2.2-10.2-2.2-17.8
		V68.4c0-2.7,0.8-4.7,2.2-6.1c1.5-1.4,3.1-2.1,4.8-2.1s3.3,0.7,4.8,2.1c1.5,1.4,2.2,3.4,2.2,6.1v74.7c0,0.7,0,2-0.1,4
		c-0.1,2,0.1,4,0.5,6.1s1.1,3.9,2.2,5.6c1.1,1.7,2.8,2.5,5,2.5c2.8,0,4.8,0.8,6.2,2.2s2.1,3.1,2.1,4.9c0,1.8-0.7,3.4-2.1,4.9
		c-1.4,1.5-3.5,2.2-6.2,2.2L450.4,175.4L450.4,175.4z"/>
	<path class="st1" d="M485.6,95.8c0-2.7,0.8-4.7,2.2-6.1c1.5-1.4,3.1-2.1,4.8-2.1c1.7,0,3.3,0.7,4.8,2.1c1.5,1.4,2.2,3.4,2.2,6.1
		v71.7c0,2.6-0.8,4.7-2.2,6.1c-1.5,1.4-3.1,2.1-4.8,2.1c-1.7,0-3.3-0.7-4.8-2.1c-1.5-1.4-2.2-3.4-2.2-6.1V95.8z"/>
	<path class="st1" d="M598.4,106.4c1.4,2.2,1.9,4.3,1.4,6.1s-1.5,3.3-3,4.2c-1.5,0.9-3.2,1.3-5.2,1c-2-0.3-3.7-1.4-5.1-3.4
		c-2.7-3.9-6.2-6.8-10.5-8.7c-4.4-1.9-8.9-2.9-13.7-2.9c-3.9,0-7.5,0.7-11,2c-3.4,1.3-6.5,3.3-9.1,5.8c-2.7,2.6-4.8,5.6-6.3,9.2
		c-1.5,3.6-2.3,7.6-2.3,12c0,4.5,0.8,8.6,2.3,12.1s3.7,6.6,6.3,9c2.7,2.5,5.7,4.4,9.1,5.7c3.4,1.3,7.1,2,11,2
		c4.7,0,9.2-0.9,13.6-2.8c4.4-1.9,8-4.7,10.6-8.5c1.4-2,3.2-3.1,5.1-3.5s3.7,0,5.2,0.9c1.5,0.9,2.5,2.3,3,4.1c0.5,1.8,0,3.8-1.4,6.1
		c-3.8,5.9-8.8,10.4-15.2,13.7c-6.4,3.3-13.4,4.9-21,4.9c-6,0-11.6-1.1-16.9-3.4c-5.3-2.3-10-5.4-13.9-9.4s-7.1-8.6-9.4-13.9
		c-2.3-5.3-3.4-11-3.4-17.1c0-6.1,1.1-11.8,3.4-17.2c2.3-5.4,5.4-10,9.4-14s8.6-7.1,13.9-9.4c5.3-2.3,11-3.4,16.9-3.4
		c7.6,0,14.6,1.6,21,4.9S594.6,100.5,598.4,106.4"/>
	<g>
		<path class="st1" d="M496.5,76.2c-21,0-38.1-17.1-38.1-38.1S475.5,0,496.5,0s38.1,17.1,38.1,38.1
			C534.5,59.1,517.5,76.2,496.5,76.2z M496.5,7c-17.1,0-31.1,14-31.1,31.1s14,31.1,31.1,31.1c17.1,0,31.1-13.9,31.1-31.1
			C527.5,20.9,513.6,7,496.5,7z"/>
	</g>
	<path class="st0" d="M496.5,24.8c7.3,0,13.3,6,13.3,13.3c0,7.3-6,13.3-13.3,13.3c-7.3,0-13.3-6-13.3-13.3S489.1,24.8,496.5,24.8"/>
</g>
</svg>
