<?xml version="1.0" encoding="utf-8"?>
<!-- Generator: Adobe Illustrator 25.2.1, SVG Export Plug-In . SVG Version: 6.00 Build 0)  -->
<svg version="1.1" xmlns="http://www.w3.org/2000/svg" xmlns:xlink="http://www.w3.org/1999/xlink" x="0px" y="0px"
	 viewBox="0 0 200.4 66.5" style="enable-background:new 0 0 200.4 66.5;" xml:space="preserve">
<style type="text/css">
	.st0{display:none;}
	.st1{display:inline;}
	.st2{fill-rule:evenodd;clip-rule:evenodd;fill:#60A7DE;}
	.st3{fill-rule:evenodd;clip-rule:evenodd;fill:#A7C95B;}
	.st4{fill-rule:evenodd;clip-rule:evenodd;fill:#4674B6;}
	.st5{fill-rule:evenodd;clip-rule:evenodd;fill:#4272B3;}
	.st6{fill-rule:evenodd;clip-rule:evenodd;fill:#CD4E51;}
	.st7{fill:#4171B3;}
	.st8{clip-path:url(#SVGID_2_);fill:#226CB4;}
	.st9{display:inline;fill:#226CB4;}
	.st10{display:inline;fill:#DF4248;}
	.st11{fill:#09E1CD;}
	.st12{fill:#0097D3;}
	.st13{fill:#006EA9;}
</style>
<g id="Capa_1" class="st0">
	<g class="st1">
		<g>
			<g>
				<path class="st2" d="M11.3,36.6C14.2,29,18.8,24,26.4,21.1c1.3-0.5,4.1-1,6.8-0.7c3.8,0.4,6.7,2.4,8.9,5.5
					c1.1,1.6,1.7,3.1,2.5,4.9c-1.7,1-3.4,2.6-4.7,4.4c-1.8-2.5-4.8-5.2-7.6-5.5c-4.7-0.6-9.8,2.1-11.4,3.3
					c-2.3,1.7-5.3,7.1-6.4,12.3c-1,7.8,1.2,15,1.1,14.8c-2.4-3.4-4.4-9-5.1-12.1C9.8,45.2,10.2,39.5,11.3,36.6z"/>
				<path class="st2" d="M39.5,14.5c-1.9,4.3-6.5,6.5-10.3,4.8c-3.8-1.7-5.3-6.5-3.4-10.8c1.9-4.3,6.5-6.5,10.3-4.8
					C39.9,5.3,41.4,10.1,39.5,14.5z"/>
			</g>
			<g>
				<path class="st3" d="M60,31.1c-6.1-4.5-15.1-2.8-20,3.9c-4.9,6.7-3.9,15.8,2.2,20.3c6.1,4.5,15.1,2.8,20-3.9
					C67.1,44.7,66.1,35.6,60,31.1z M59.6,51.4c-4.5,5.4-12,6.6-16.9,2.6c-4.9-4-5.2-11.7-0.7-17.1c4.5-5.4,12.1-6.6,16.9-2.6
					C63.8,38.3,64.1,46,59.6,51.4z"/>
				<path class="st3" d="M56.1,18.9c1.2,4.1-0.3,8.1-3.4,9.1c-3.1,0.9-6.6-1.6-7.8-5.7c-1.2-4.1,0.3-8.1,3.4-9.1
					C51.4,12.3,54.9,14.8,56.1,18.9z"/>
			</g>
			<g>
				<path class="st4" d="M35.7,39.8c0.2,0.1,0.4,0.3,0.8,0.5c-4.9-1-9.4-0.3-13.2,2.8c-3.8,3.2-5.1,7.3-4.8,12.4
					c-0.3-0.5-0.5-1-0.8-1.4c-1.3-2.8-1.6-6-0.8-8.9c1-3.4,3.7-6.3,8.4-7.2C28.9,37.3,33,38.3,35.7,39.8z"/>
				<path class="st4" d="M30,34.3c-1.2,2.6-3.9,3.9-6.2,2.9c-2.3-1-3.2-3.9-2-6.6c1.2-2.6,3.9-3.9,6.2-2.9
					C30.2,28.8,31.2,31.7,30,34.3z"/>
			</g>
			<g>
				<path class="st2" d="M67,49.3c-0.5-0.5-2.4-1.8-4.7-2.2c-2.5-0.4-5.1,0.3-7.6,0.4c-8.6,0.4-13.8-4.2-14.9-5.3
					c0,0,1.3,2.2,1.8,2.7c3.3,4,8.8,6.2,12,6.6c1.9,0.2,4.3,0.3,6.2,0.1c2.6-0.2,5.3-0.7,7-1.3C67.1,50.1,67.4,49.7,67,49.3z"/>
				<path class="st2" d="M43.7,44.9c-2.2-1.1-3.4-3.2-2.7-4.8c0.8-1.6,3.2-2,5.4-0.9c2.2,1.1,3.4,3.2,2.7,4.8
					C48.4,45.6,46,46,43.7,44.9z"/>
			</g>
		</g>
		<g>
			<g>
				<rect x="90" y="59.7" class="st5" width="42.6" height="3.7"/>
				<rect x="132.5" y="59.7" class="st6" width="51.8" height="3.7"/>
			</g>
			<g>
				<path class="st7" d="M75.4,31.3h14.7c0,0-0.2,2.1-1.9,2.6l-9.1,0c-0.4,0-1.2,0.7-1.4,1L75.4,44h11.2c0,0-0.1,2.5-2.1,3h-9.7
					L72,60.2h-1.2c-0.9,0-2.4-1.3-2.2-2.2l5.1-24.7C73.9,32.8,73.9,31.3,75.4,31.3z"/>
				<path class="st7" d="M109.3,43.9c0,5.5-4.8,11.2-11.8,11.2c-5.2,0-8.6-3.3-8.6-7.3c0-5.8,5.2-10.9,12-10.9
					C106.6,36.9,109.3,40.1,109.3,43.9z M92.7,47.8c0,2.9,2.3,5,5.3,5c4.2,0,7.6-4.7,7.6-8.8c0-2.1-1.3-4.5-5-4.5
					C96.1,39.3,92.6,43.7,92.7,47.8z"/>
				<path class="st7" d="M110.2,54.7l2.8-12.6c0.5-2,0.7-3.7,1-5.2h3.2l-0.5,3.5h0.1c1.9-2.5,4.7-3.9,7.7-3.9c2.5,0,5.3,1.2,5.3,5
					c0,0.8-0.2,1.9-0.4,2.9l-2.3,10.4c0,0-2.9,0-3-2.8l1.7-7.4c0.2-0.7,0.3-1.5,0.3-2.3c0-1.8-0.8-2.7-3.3-2.7
					c-2.5,0-6.2,2.2-7.1,6.6l-1.9,8.6H110.2z"/>
				<path class="st7" d="M153.9,51.6c1,0.5,3,1.2,4.6,1.2c2.4,0,4.3-1.4,4.3-3c0-1.4-1.2-2.1-3.4-3.1c-2.4-1.1-3.8-2.8-3.8-4.6
					c0-3.1,3.3-5.1,7.7-5.1c1.9,0,4.2,0.3,5,0.7l-1,2.3c-0.7-0.4-2.7-0.6-4.3-0.6c-2.2,0-3.6,0.7-3.6,2.3c0,1.3,1.1,2.1,3,3
					c2.3,1.1,4.1,2.6,4.1,4.6c0,3.7-4,6-8.4,6c-2.2,0-4.4-0.7-5.3-1.3L153.9,51.6z"/>
				<path class="st7" d="M184.1,52.8c0,0,0.1-0.9,0.3-2.7h-0.1c-2.3,3.7-6.2,4.8-9.2,4.8c-3.7,0-6-2.5-6-5.9
					c0-6.2,6.4-12.5,15.5-12.5c2,0,4.2,0.3,5.6,0.7l-2.1,9.3c-0.7,3.1-1,6.2-0.9,8.2C187.3,54.7,183.8,55.1,184.1,52.8z M186.3,39.2
					c-0.5-0.1-1.3-0.3-2.5-0.3c-5.4,0-10.9,4.6-10.9,9.5c0,2,0.7,3.8,3.5,3.8c3,0,7.7-2.9,8.7-7.7L186.3,39.2z"/>
				<path class="st7" d="M147.2,52.9c0,0,0.1-0.9,0.3-2.7h-0.1c-2.3,3.7-6.2,4.8-9.2,4.8c-3.7,0-6-2.5-6-5.9
					c0-6.2,6.4-12.5,15.5-12.5c2,0,4.2,0.3,5.6,0.7l-2.1,9.3c-0.7,3.1-1,6.2-0.9,8.2C150.3,54.8,146.9,55.2,147.2,52.9z M149.4,39.3
					c-0.5-0.1-1.3-0.3-2.5-0.3c-5.4,0-10.9,4.6-10.9,9.5c0,2,0.7,3.8,3.5,3.8c3,0,7.7-2.9,8.7-7.7L149.4,39.3z"/>
			</g>
		</g>
	</g>
</g>
<g id="Capa_2" class="st0">
	<g class="st1">
		<g>
			<defs>
				<rect id="SVGID_1_" x="32.2" y="24.2" width="137.2" height="39"/>
			</defs>
			<clipPath id="SVGID_2_">
				<use xlink:href="#SVGID_1_"  style="overflow:visible;"/>
			</clipPath>
			<path class="st8" d="M147.8,63.2c5.9-0.4,10.9-2.6,14.9-6.5c4.5-4.4,6.7-10,6.7-16.7c0-6.1-1.7-11.4-5.5-15.6
				c-0.1-0.1-0.3-0.2-0.5-0.2c-0.3,0-0.6,0.3-0.6,0.6c0,0.1,0,0.1,0,0.2c2.8,7.4,1.2,14.9-3.7,16.8c-3.4,1.4-7.5-0.3-10.8-3.9
				c-0.2-0.2-0.7-0.3-0.9,0c-0.2,0.2-0.2,0.6-0.1,0.8c0,0,0.1,0.1,0.1,0.1c2.8,3.2,4.3,7.1,4.3,11.7c0,4.6-1.4,8.5-4.3,11.6
				c-0.1,0.1-0.2,0.3-0.2,0.4C147.2,62.9,147.5,63.2,147.8,63.2"/>
			<path class="st8" d="M102.2,61.1c-0.5-0.7-1.1-1.8-2-3.2c-1.3-2.2-2.3-3.8-3-4.7c-0.7-0.9-1.4-1.6-2.2-2.1
				c1.3-0.5,2.5-1.3,3.1-2.4c0.7-1.1,1-2.3,1-3.8c0-2.1-0.7-3.8-2.1-5.1c-1.4-1.2-3.5-1.9-5.9-1.9h-5.9v24.9H89V52.1h0.3
				c1.1,0,1.9,0.1,2.3,0.4c0.5,0.3,1,0.7,1.6,1.3c0.6,0.6,1.2,1.4,1.9,2.4l1.1,1.9l1,1.8l0.7,1c0.1,0.1,0.2,0.2,0.2,0.3l1,1.6h4.3
				L102.2,61.1z M93.6,48.2c-0.6,0.3-1.9,0.4-3.4,0.4H89v-7.2H90c1.5,0,2.8,0.1,3.4,0.4c0.6,0.2,1.1,0.6,1.5,1.2
				c0.4,0.6,0.5,1.2,0.5,1.9c0,0.7-0.2,1.4-0.5,1.9C94.6,47.5,94.2,47.9,93.6,48.2"/>
			<polygon class="st8" points="106.5,38 118.9,38 118.9,41.6 110.2,41.6 110.2,47.8 118.9,47.8 118.9,51.3 110.2,51.3 110.2,62.9 
				106.5,62.9 			"/>
			<path class="st8" d="M77.9,41.3c-2.4-2.4-5.4-3.6-9-3.6c-3.6,0-6.6,1.2-9,3.6c-2.4,2.4-3.5,5.5-3.5,9.2c0,3.6,1.2,6.6,3.5,9
				c2.3,2.4,5.3,3.6,8.8,3.6c3.7,0,6.8-1.2,9.2-3.6c2.4-2.4,3.6-5.4,3.6-9.1C81.5,46.8,80.3,43.8,77.9,41.3 M75.2,57.2
				c-1.7,1.8-3.8,2.7-6.3,2.7c-2.5,0-4.6-0.9-6.2-2.7c-1.7-1.8-2.5-4-2.5-6.7c0-2.8,0.8-5.1,2.5-6.8c1.7-1.8,3.8-2.7,6.3-2.7
				c2.4,0,4.5,0.9,6.2,2.7c1.7,1.8,2.5,4,2.5,6.7C77.7,53.1,76.9,55.4,75.2,57.2"/>
			<path class="st8" d="M143.9,41.3c-2.4-2.4-5.4-3.6-9-3.6c-3.6,0-6.6,1.2-9,3.6c-2.4,2.4-3.5,5.5-3.5,9.2c0,3.6,1.2,6.6,3.5,9
				c2.3,2.4,5.3,3.6,8.8,3.6c3.7,0,6.8-1.2,9.2-3.6c2.4-2.4,3.6-5.4,3.6-9.1C147.5,46.8,146.3,43.8,143.9,41.3 M141.1,57.2
				c-1.7,1.8-3.8,2.7-6.3,2.7c-2.5,0-4.6-0.9-6.2-2.7c-1.7-1.8-2.5-4-2.5-6.7c0-2.8,0.8-5.1,2.5-6.8c1.7-1.8,3.8-2.7,6.3-2.7
				c2.4,0,4.5,0.9,6.2,2.7c1.7,1.8,2.5,4,2.5,6.7C143.7,53.1,142.8,55.4,141.1,57.2"/>
			<path class="st8" d="M52.9,57.2C51,59.1,48.6,60,45.8,60c-2.8,0-5.2-0.9-7.1-2.7c-1.9-1.8-2.8-4-2.8-6.7c0-2.8,0.9-5.1,2.8-6.8
				c1.9-1.8,4.3-2.7,7.2-2.7c2.8,0,5.1,0.9,7,2.7c0,0,0,0,0.1,0.1v-0.2v-3.5v-0.4c-3-1.4-5.7-2-8.2-2c-3.6,0-6.6,1.2-9,3.7
				c-2.4,2.5-3.6,5.5-3.6,9.1c0,2.3,0.5,4.4,1.6,6.4c1.1,2,2.5,3.5,4.3,4.6c1.8,1.1,4,1.7,6.6,1.7c3.2,0,6.1-0.7,8.5-2.1v-0.4v-3.6
				v-0.2c0,0,0,0,0,0C53.1,57,53,57.1,52.9,57.2"/>
			<path class="st8" d="M160,32.4c-0.9-0.9-1.9-1.3-3.2-1.3c-1.3,0-2.4,0.4-3.2,1.3c-0.8,0.9-1.3,2-1.3,3.3c0,1.3,0.4,2.4,1.3,3.2
				c0.8,0.9,1.9,1.3,3.1,1.3c1.3,0,2.4-0.4,3.3-1.3c0.9-0.9,1.3-1.9,1.3-3.2C161.3,34.4,160.8,33.3,160,32.4"/>
		</g>
	</g>
	<rect x="32.3" y="2.6" class="st9" width="51.9" height="14"/>
	<rect x="84.2" y="2.6" class="st10" width="62.9" height="14"/>
</g>
<g id="Capa_3" class="st0">
	<g class="st1">
		<polygon class="st11" points="128.3,25 132.6,25 138.8,37.9 144.7,25 147.2,25 139.1,41.6 136.8,41.6 		"/>
		<path class="st11" d="M80.3,32.8c0,4.6-3.8,8.6-11.5,8.6h-7.3V25h8.3C77.2,25,80.3,29.1,80.3,32.8 M76.4,33c0-3.6-2.4-6.2-8-6.3
			c-1.5,0-2.4,0-3.2,0.1v11.1c0,1.7,0.8,2,3.4,2C73.1,39.9,76.4,37,76.4,33"/>
		<path class="st11" d="M32.4,32.1c0,1-0.4,1.4-1.5,1.4H17.3c0.4,4.3,3.8,6.5,7.7,6.5c2.4,0,4.5-0.5,6.6-1.4l0.6,1.4
			c-3,1.3-5.8,1.8-8.9,1.8c-4.9,0-9.7-2.5-9.9-8.3H5.9l0.8-1.6h6.8c0.7-4.5,5.3-7.2,9.6-7.2C29.9,24.7,32.4,29.5,32.4,32.1
			 M28.6,30.6c0-2-2.1-4.3-5.4-4.3c-3.6,0-5.5,2.7-5.8,5.6h8.9C28,31.9,28.6,31.4,28.6,30.6"/>
		<path class="st11" d="M170.2,33.2c0,5.4-5.2,8.6-10.4,8.6c-5.1,0-10.4-3.1-10.4-8.6c0-5.4,5.3-8.5,10.4-8.5
			C164.9,24.7,170.2,27.8,170.2,33.2 M166.4,33.3c0-4.1-2.6-7-6.7-7c-3.7,0-6.6,2.7-6.6,6.7c0,4.3,2.6,7.2,6.8,7.2
			C163.3,40.2,166.4,37.8,166.4,33.3"/>
		<polygon class="st11" points="37.7,41.4 37.7,25 41.3,25 53.1,36.5 53.1,25 55.5,25 55.5,41.4 53.1,41.4 40.1,29 40.1,41.4 		"/>
		<path class="st11" d="M120.7,31.1c-6.2,0-12.8,1.8-12.8,5.9c0,2.6,2,4.8,5.8,4.8c3.1,0,5.9-1.1,7.4-2v1.7h3.7v-9.8
			c0-5.3-3-7-7.5-7c-3.2,0-6.1,0.6-8.4,1.7l0.6,1.6c2-0.9,4.3-1.6,6.4-1.6c3.8,0,5.2,2.2,5.2,4.8H120.7z M121.1,32.5v3.5
			c0,2.6-2.4,4-5.5,4c-2.5,0-3.9-1-3.9-3.1c0-3.6,6.3-4.3,9.3-4.3H121.1z"/>
		<path class="st11" d="M174.9,25v16.4h3.7v-6.6c0.7,0,1.2,0,2,0c3.8,3.8,7.1,6.4,13.3,6.9l0.5-1c-4.5-1.2-8-4.4-10-6.6
			c2.5-0.5,5-1.8,5-4.8c0-2.2-1.9-4.2-7.6-4.2H174.9z M178.6,33.3v-6.7c0.8-0.1,1.6-0.1,2.3-0.1c3.4,0,4.8,1.1,4.8,3.3
			c0,2.6-2.5,3.4-6.4,3.4H178.6z"/>
		<path class="st11" d="M84.3,33.1c0-4.8,4.6-8.4,9.7-8.4c6.8,0,9.2,4.8,9.2,7.4c0,1-0.4,1.4-1.5,1.4H88.2c0.4,4.3,3.8,6.5,7.7,6.5
			c2.4,0,4.5-0.5,6.6-1.4l0.6,1.4c-3,1.3-5.8,1.8-8.9,1.8C89,41.8,84.3,38.9,84.3,33.1 M99.4,30.6c0-2-2.1-4.3-5.4-4.3
			c-3.6,0-5.5,2.7-5.8,5.6h8.9C98.9,31.9,99.4,31.4,99.4,30.6"/>
	</g>
</g>
<g id="Capa_4" class="st0">
	<g class="st1">
		<g transform="translate(0.000000,83.000000) scale(0.100000,-0.100000)">
			<path d="M96.7,581.2c-27-5.4-42.4-23.8-42.4-50.2c0-24.9,11.5-37.2,44.1-46.8c30.9-9,37.4-11.7,41-17.1
				c7.3-11.3-3.1-21.7-21.7-21.7c-13.8,0-22.6,2.7-37.2,11.7l-12.5,7.3l-4.8-5.9c-2.7-3.1-7.3-9-10.4-13l-5.4-6.9l6.1-5
				c9-7.3,25.1-14.8,39.7-18.6c34.9-9,69.6,2.7,80.7,27c5.4,11.9,5.2,32.4-0.2,43c-7.3,14.4-17.3,19.9-58.9,32.4
				c-20.3,5.9-26.3,11.3-23.8,20.9c3.6,13.6,27,14.8,50.4,2.5l13.8-7.3l9.4,13.8c8.6,13,9,14.2,5.6,16.7c-8.6,6.5-25.1,13.4-38,16.3
				C116.5,583.5,109.8,583.7,96.7,581.2z"/>
			<path d="M1322.7,579.9c-31.6-8.6-52.7-32-59.8-66.2c-6.1-28.6,2.7-57.7,23.6-78.6c17.1-17.1,30.3-21.9,59.1-22.2
				c25.1,0,33.9,2.9,53.9,18l11.3,8.6l-5.9,6.1c-7.1,7.3-6.5,7.9-7.6,7.2c-2.5-2.7-18.1-13.6-25-16.8c-10-4.6-15.9-5.6-28-5.6
				c-26.5,0-44.9,12.3-57,38c-7.7,16.3-7.7,41.8,0,58.5c11.1,23.6,27.6,35.3,52.2,37.2c18.2,1.3,30.1-2.1,45.1-12.5l11.7-8.4
				l6.5,6.5l6.3,6.3l-4.8,5.2c-2.5,2.7-10,7.9-16.5,11.3C1367.2,583.3,1344.6,585.8,1322.7,579.9z"/>
			<path d="M194.3,563.4v-17.8h25.1h25.1v-65.8v-66H281l0.6,66.7l0.4,65.2h25.3h25.1l-0.6,17.3l-0.6,17.1l-68.3,0.6l-68.5,0.4V563.4
				z"/>
			<path d="M536.3,579.7c-0.8-0.6-1.5-38.2-1.5-83.6V414h18.8h18.8v26.1v26.1h14.4h14.2l17.3-26.1l17.3-26.1h20.7
				c18,0,23.1-0.1,23.1-0.1c-0.6,1.7-12.9,18.5-22.7,32.9c-14.2,20.5-17.6,26.5-15.3,28c1.7,1,3.6,1.9,4.4,1.9
				c4,0,19.4,16.5,22.8,24c5.2,11.5,5.2,36.6,0,48.1c-7.5,16.7-22.2,26.5-44.3,30.3C609.9,581.4,538.4,582,536.3,579.7z
				 M630.2,538.7c3.6-4.2,5-8.4,5-14.6c0-18.4-10.4-24.4-41.8-24.4h-20.9v23.2v23.2l26.3-0.8C624.7,544.6,625.1,544.6,630.2,538.7z"
				/>
			<path d="M695.1,579.7c-0.8-0.6-1.5-8.8-1.5-17.8v-16.3h25.1h25.1v-65.8V414h18.8h18.8v65.8v65.8h25.1h25.3l-0.6,17.3l-0.6,17.1
				l-67.1,0.6C726.7,581,696,580.5,695.1,579.7z"/>
			<path d="M926.5,578.2c-0.6-1.7-0.8-27.8-0.4-58.1c0.8-51.6,1-55.8,5.6-67.3c6.3-15.7,16.3-26.7,31.1-34.1
				c10.9-5.2,14-5.9,34.9-5.9c21.9,0,23.8,0.4,37.2,6.9c16.5,8.1,27,20.3,32.4,37.8c2.9,9.8,3.6,20.7,3.6,67.1v55.4l-18.2,0.6
				l-18.2,0.6l-0.6-56c-0.6-54.5-0.8-56.2-5.4-63.9c-6.5-10.4-15.5-14.8-29.7-14.8s-23.2,4.4-29.7,14.8c-4.6,7.7-4.8,9.4-5.4,63.9
				l-0.6,55.8h-17.8C931.7,581.2,927.3,580.5,926.5,578.2z"/>
			<path d="M1107.4,497.8v-84h36.6l0.6,25.5l0.6,24.4l24.7,0.8c21.5,0.6,26.1,1.5,36.2,6.5c15.5,7.7,25.7,19.2,30.1,34.1
				c6.5,22.4,0,46.4-16.3,60.2c-14.4,12.3-22.8,14.2-70,15.3l-42.4,1V497.8z M1188.9,542.5c6.7-3.3,12.5-12.7,12.5-19.9
				c0-7.9-5.9-18.6-12.3-21.7c-4.4-2.3-12.1-3.3-25.3-3.3H1145v24v24h18.8C1176.8,545.6,1184.7,544.6,1188.9,542.5z"/>
			<path d="M1441.8,581.2c0-1.2,0-39.9,0-85v-82.3h19.9l0.6,38.2l0.4,37.2h47h47v-37.6V414h9.4h9.4v83.6v83.6h-9.4h-9.4v-37.6v-37.6
				h-47h-47l-0.4,37.2l-0.6,38C1461.6,581.2,1441.8,581.5,1441.8,581.2z"/>
			<path d="M1623.6,497.6V414h9.4h9.4v83.6v83.6h-9.4h-9.4V497.6z"/>
			<path d="M1690.4,497.6V414l111.8-0.2v9.6v9.8l-47-0.2l-46-0.2V507v74.2h-9.4h-9.4V497.6z"/>
			<path d="M1836.7,497.6V414l120.2-0.2v9.6v9.2l-101.3,0.2V461v28.2h44.9h44.9v8.4v8.4h-44.9h-44.9v28.2v28.2h50.2h50.2v9.4v9.4
				h-59.6h-59.6V497.6z"/>
			<path d="M837.9,488.2v-17.8h30.3h30.5l-0.6,17.3l-0.6,17.1l-29.7,0.6l-29.9,0.6V488.2z"/>
		</g>
		<polygon class="st12" points="36,25 42,25 49.2,30.6 49.2,35.8 41.9,41.6 36,41.6 46.7,33.4 		"/>
	</g>
</g>
<g id="Capa_5">
	<g>
		<g transform="translate(0.000000,204.000000) scale(0.100000,-0.100000)">
			<path class="st13" d="M756.1,2004c-10.5-5.6-17.7-21.6-14.8-32.8c5.6-21.6,37.4-29.8,50.8-12.8c10.8,13.4,9.2,31.5-3.3,42
				C777.7,2009.9,768.9,2010.9,756.1,2004z"/>
			<path class="st13" d="M661.3,1984.7c-20-5.6-73.4-32.1-74.7-37c-2-6.9,12.5-11.5,36.4-11.5c22,0,24.9-1,69.2-23.3
				c63.3-32.1,67.5-33.8,71.1-28.2c5.2,8.2,3.3,11.1-13.4,20.3c-17,9.5-28.5,22-31.1,33.1s-4.3,22.6-4.6,30.5
				C713.5,1983.7,686.6,1991.9,661.3,1984.7z"/>
			<path class="st13" d="M846.2,1985.6c-11.5-3.3-16.4-11.8-19.3-33.1c-2.6-20.3-13.1-35.1-33.4-46.9c-18-10.5-20.7-14.8-12.5-21.3
				c3.9-3.3,14.8,0.7,61.6,24.6c46.9,23.3,59.3,28.2,69.8,27.5c21.3-1.3,32.5,0,39.3,5.2c6.2,4.9,6.2,4.9-1,11.1
				c-10.5,8.9-65.9,32.1-81.3,34.1C862.3,1987.9,851.8,1987.6,846.2,1985.6z"/>
			<path class="st13" d="M555.1,1940.1c-16.1-5.2-53.8-12.5-131.4-25.6l-13.1-2.3l11.1-8.2c9.5-6.6,16.4-8.2,39.7-9.2
				c36.7-1.6,68.2,3.3,114.4,18.7l37.4,12.5l-15.1,3.6c-8.2,2.3-17,6.6-19.3,10.2C574.5,1945.7,573.8,1945.7,555.1,1940.1z"/>
			<path class="st13" d="M963.6,1940.1c-2-3.3-9.8-8.2-17.7-10.8l-14.1-4.6l37.4-12.1c44.3-14.1,68.2-18.4,101.9-18.4
				c29.2,0,45.9,4.3,54.1,13.1c3.3,3.6,4.6,6.6,3,6.6c-17.4,0-101,15.7-139.3,26.2C968.2,1945.7,967.2,1945.7,963.6,1940.1z"/>
			<path class="st13" d="M758.7,1941.4c-3.9-3.9-2.6-7.9,3-7.9c4.6,0,5.2-2.6,3.9-14.8c-1.6-12.8-1-14.8,4.3-14.8s6.2,2.6,6.2,14.8
				c0,11.1,1.3,14.8,5.2,14.8c3,0,4.6,2,3.9,4.3C783.6,1942.1,762.6,1945,758.7,1941.4z"/>
			<path class="st13" d="M614.8,1920.4c-40.6-17.4-81.6-29.8-111.4-33.8l-30.5-4.3l17.7-4.3c24.6-6.2,74.7-3.3,101.9,6.2
				c25.9,8.9,68.8,29.2,68.8,32.8c0,4.3-7.5,8.9-17,10.5C639.1,1928.6,627.3,1925.7,614.8,1920.4z"/>
			<path class="st13" d="M886.9,1923.4c-3.3-1.6-5.9-4.6-5.9-5.9c0-4.3,35.4-21.6,63.9-31.5c32.1-11.1,89.8-15.1,111.1-7.5l12.5,4.6
				l-28.8,3.9c-28.2,3.6-93.4,23.3-115.1,34.7C912.8,1927.6,895.4,1928.6,886.9,1923.4z"/>
			<path class="st13" d="M638.7,1895.5c-20.3-10.5-44.9-20-60.3-23.6l-26.2-5.9l15.4-4.6c26.6-7.5,51.8-2.6,95.1,17.7
				c21,9.8,38,18.7,38,19.3c0,2.3-22.9,15.4-25.6,14.8C673.8,1912.9,657.4,1905,638.7,1895.5z"/>
			<path class="st13" d="M856.4,1908.6c-5.2-2.6-11.1-6.2-12.8-7.9c-2.3-2.3,37-22.9,68.2-35.7c15.7-6.6,46.2-8.2,62.9-3.6l15.7,4.6
				l-28.8,7.2c-16.1,3.9-43.3,14.4-60.6,22.9c-17.4,8.9-32.1,16.4-33.1,16.7C866.9,1913.5,861.9,1911.6,856.4,1908.6z"/>
			<path class="st13" d="M714.4,1880.4c-9.5-1.3-22.9-5.6-29.8-9.2c-38-19.3-39-71.1-1.6-94.7c18.4-11.8,36.4-15.7,86.5-19.7
				c43.3-3.3,59.7-9.2,65.9-24.3c5.2-12.1,1.6-18.4-15.4-26.6l-12.8-5.9l14.8-7.5c13.8-6.9,15.4-7.2,23.3-2.6
				c22.9,13.8,24.9,46.5,3.9,68.2c-15.7,16.4-27.2,20.7-65.6,24.6c-55.7,6.2-70.5,9.5-83.3,17.7c-13.1,8.9-16.1,16.7-12.5,34.1
				c4.6,21,17.4,27.9,37.4,20.3c9.8-3.6,32.5,0.7,36.4,6.9c3,4.9-8.5,15.7-20,18.7C736.1,1882.1,723.9,1882.1,714.4,1880.4z
				 M744.9,1874.5c1-1.6-0.3-3.3-3-3.3c-3,0-5.2,1.6-5.2,3.3c0,2,1.3,3.3,3,3.3C741.6,1877.8,743.9,1876.5,744.9,1874.5z"/>
			<path class="st13" d="M804.9,1881.7c-4.6-0.7-12.8-4.6-17.4-9.2l-9.2-8.2l7.2-4.9c6.9-4.9,13.4-5.6,42.6-3.9
				c12.5,1,15.1-0.3,21.3-8.2c8.5-11.8,8.9-32.1,0.7-41.3c-3.3-3.6-13.8-9.5-22.9-13.1c-9.2-3.6-14.4-6.6-11.5-6.6
				c2.6-0.3,12.5-3.9,21.3-8.5l16.1-8.2l11.1,9.2c18,14.4,23.9,28.5,22.3,51.1c-2.6,29.2-15.7,41-54.7,49.2
				C822,1881.1,809.8,1882.4,804.9,1881.7z M805.6,1874.5c0-1.6-2.3-3.3-5.2-3.3c-2.6,0-3.9,1.6-3,3.3c1,2,3.3,3.3,5.2,3.3
				C804.3,1877.8,805.6,1876.5,805.6,1874.5z"/>
			<path class="st13" d="M763,1849.9c-3.9-9.8-4.3-21-1.3-42.3c2-13.1,3.3-15.1,10.2-15.1c7.9,0,7.9,0,6.9,31.8
				c-1,27.5-2,32.1-6.6,33.1C768.2,1858.1,765.3,1855.5,763,1849.9z"/>
			<path class="st13" d="M688.5,1751c-20.3-28.5-5.2-61,33.4-72.8c7.2-2,27.5-4.9,45.2-5.9c43.9-2.6,59-12.8,53.4-35.1
				c-1-4.3-5.2-8.9-9.2-10.8l-7.2-3.3l8.9-5.9c7.9-4.9,10.2-5.2,17-1.6c18.4,9.8,17.4,42.9-2,62c-11.5,11.8-23.9,15.4-62,18
				c-18.7,1.6-32.8,4.6-42.6,9.5c-12.8,6.2-14.8,8.9-15.7,18.7c-1,9.5,0.7,12.8,9.2,20l10.2,8.9l-11.8,2c-6.6,1.3-13.8,3-16.4,3.9
				C696.7,1759.5,691.8,1756.2,688.5,1751z"/>
			<path class="st13" d="M763,1727c0-22.3,0.3-22.9,8.2-22.9s8.2,0.7,8.2,22.9c0,22.3-0.3,22.9-8.2,22.9S763,1749.3,763,1727z"/>
			<path class="st13" d="M704.3,1664.4c-5.2-15.1-4.6-33.1,1.6-42c8.2-11.8,29.5-20,52.4-20c34.7,0,50.2-8.9,50.5-28.5
				c0-7.9-2.3-11.5-9.8-16.4l-10.2-6.2l8.9-4.3c7.5-3.3,9.8-3,15.4,2c3.6,3.3,8.5,10.8,10.8,16.4c3.9,9.2,3.9,12.5-0.7,23.9
				c-7.9,19.7-20.3,26.9-51.8,29.8c-30.2,2.6-42.6,6.6-47.2,14.8c-3.9,6.9,0.7,24.3,7.5,29.5c3.9,3,2.6,4.3-7.9,7.2
				C707.6,1675.9,708.5,1676.2,704.3,1664.4z"/>
			<path class="st13" d="M763,1657.5c0-16.4,4.3-32.1,8.5-32.1c3.3,0,4.6,5.2,4.6,19.7c0,17.4-0.7,19.7-6.6,19.7
				C764.9,1664.7,763,1662.4,763,1657.5z"/>
			<path class="st13" d="M719,1592c-5.6-22,1.6-40.3,20.3-49.8c4.9-2.6,17.4-5.6,28.2-6.9c21-2.6,31.5-10.2,31.5-22.3
				c0-19.7-7.5-63.9-12.1-71.1l-4.9-8.2l7.2,6.9c8.5,8.2,19.7,50.2,19.7,74.1c0,18.4-7.9,27.5-25.9,30.8
				c-35.7,5.9-49.5,14.1-49.5,28.5c0,3.9,2.3,10.5,4.9,14.4c4.3,6.2,4.3,7.2-0.3,8.9C727.9,1601.2,721,1599.2,719,1592z"/>
			<path class="st13" d="M766.2,1576.2c0-15.4,1-19.7,4.9-19.7s4.9,4.3,4.9,19.7s-1,19.7-4.9,19.7S766.2,1591.6,766.2,1576.2z"/>
			<path class="st13" d="M733.1,1528.1c-6.6-17.7,12.8-92.8,23.9-92.8c2,0,1.3,2.3-1.6,5.9c-9.2,9.8-16.1,77.4-8.9,84.6
				c2,2,1,4.6-3.3,7.2C737.4,1536.6,736.1,1535.9,733.1,1528.1z"/>
			<path class="st13" d="M767.9,1462.8c0.7-35.1,2-64.9,3-65.9c2.3-2.3,2.3-5.6,3,70.1c0.3,43.3-0.3,60-3,60
				C767.9,1527.1,767.2,1509.4,767.9,1462.8z"/>
		</g>
		<g>
			<path class="st13" d="M106,42.1h-3.5v-7.1h-6.5v7.1h-3.5V25.8h3.5v6.4h6.5v-6.4h3.5V42.1z"/>
			<path class="st13" d="M109,42.1V25.8h3.5v16.4H109z"/>
			<path class="st13" d="M126.8,30.9c0,1.8-0.6,3.1-1.7,4c-1.1,0.9-2.7,1.4-4.7,1.4h-1.5v5.8h-3.5V25.8h5.2c2,0,3.5,0.4,4.5,1.3
				C126.3,27.9,126.8,29.2,126.8,30.9z M118.9,33.5h1.1c1.1,0,1.9-0.2,2.4-0.6c0.5-0.4,0.8-1,0.8-1.8c0-0.8-0.2-1.4-0.7-1.8
				c-0.4-0.4-1.1-0.6-2.1-0.6h-1.6V33.5z"/>
			<path class="st13" d="M138.8,42.1l-1.2-3.9h-6l-1.2,3.9h-3.7l5.8-16.4h4.2l5.8,16.4H138.8z M136.7,35.3c-1.1-3.5-1.7-5.5-1.9-6
				c-0.1-0.5-0.2-0.8-0.3-1.1c-0.2,1-1,3.3-2.1,7.1H136.7z"/>
			<path class="st13" d="M155.6,42.1l-1.2-3.9h-6l-1.2,3.9h-3.7l5.8-16.4h4.2l5.8,16.4H155.6z M153.6,35.3c-1.1-3.5-1.7-5.5-1.9-6
				c-0.1-0.5-0.2-0.8-0.3-1.1c-0.2,1-1,3.3-2.1,7.1H153.6z"/>
		</g>
	</g>
</g>
</svg>
