<?xml version="1.0" encoding="utf-8"?>
<!-- Generator: Adobe Illustrator 25.2.1, SVG Export Plug-In . SVG Version: 6.00 Build 0)  -->
<svg version="1.1" xmlns="http://www.w3.org/2000/svg" xmlns:xlink="http://www.w3.org/1999/xlink" x="0px" y="0px"
	 viewBox="0 0 160 160" style="enable-background:new 0 0 160 160;" xml:space="preserve">
<style type="text/css">
	.st0{display:none;}
	.st1{display:inline;fill:#FFFFFF;}
	.st2{display:inline;fill:#A4C14A;}
	.st3{display:inline;}
	.st4{fill:#A4C14A;}
</style>
<g id="Capa_1" class="st0">
	<path class="st1" d="M143.4,42.7L143.4,42.7c-3.3-2-7.5-2.1-11-0.1L110,58.8v-4.5c0-9.4-7.7-17.1-17.1-17.1H28.6
		c-9.4,0-17.1,7.7-17.1,17.1v51.4c0,9.4,7.7,17.1,17.1,17.1h64.3c9.4,0,17.1-7.7,17.1-17.1v-4.5l23.1,16.6
		c5.3,2.6,11.7,0.5,14.3-4.8c0.7-1.5,1.1-3.1,1.1-4.8V51.8C148.5,48.2,146.6,44.7,143.4,42.7z M137.7,110.4c-0.1,0-0.3,0-0.4,0
		L110,90.7V69.3l26.9-19.4c1.1-0.5,2.4-0.1,2.9,1c0.1,0.3,0.2,0.6,0.2,1l0,56.3c0,0.6-0.3,1.2-0.7,1.6
		C138.9,110.1,138.3,110.4,137.7,110.4z M101.4,54.3v51.4c0,4.7-3.9,8.6-8.6,8.6H28.6c-4.7,0-8.6-3.9-8.6-8.6V54.3
		c0-4.7,3.9-8.6,8.6-8.6h64.3C97.6,45.7,101.4,49.6,101.4,54.3z"/>
</g>
<g id="Capa_2" class="st0">
	<path class="st1" d="M148,96.7c-1.3-4.9-4.9-8.7-9.6-10.3V58.2c0-10.9-8.8-19.7-19.7-19.7S99,47.4,99,58.2v52.2
		c0,12.3-10,22.4-22.4,22.4s-22.4-10-22.4-22.4v-9.2c19.2-2.3,33.6-18.4,33.7-37.9V22.9c0-2.5-2-4.6-4.6-4.6H69.9
		c-2.5,0-4.6,2-4.6,4.6c0,2.5,2,4.6,4.6,4.6h8.9v35.8c0,16-13.1,29.1-29.1,29.1c-16,0-29.1-13.1-29.1-29.1V27.4h8.9
		c2.5,0,4.6-2,4.6-4.6c0-2.5-2-4.6-4.6-4.6H16c-2.5,0-4.6,2-4.6,4.6v40.4c0,19.5,14.4,35.6,33.7,37.9v9.2
		c0,17.4,14.1,31.5,31.5,31.5c17.4,0,31.5-14.1,31.5-31.5V58.2c0-5.8,4.8-10.6,10.6-10.6c5.8,0,10.6,4.7,10.6,10.6v28.2
		c-3.4,1.1-6.2,3.4-8.1,6.5c-2,3.4-2.5,7.3-1.6,11.1c2,7.8,10,12.5,17.9,10.5C145.3,112.5,150.1,104.5,148,96.7z M139.4,100.3
		c0,3.1-2.5,5.5-5.5,5.5c-3.1,0-5.5-2.5-5.5-5.5c0-3.1,2.5-5.5,5.5-5.5C136.9,94.8,139.4,97.2,139.4,100.3z"/>
</g>
<g id="Capa_3" class="st0">
	<path class="st2" d="M121.9,23.1L121.9,23.1c-13.1-5.1-28-2.5-42,7.5c-14-10-28.8-12.6-42-7.5C22,29.4,11.3,46.4,11.3,65.5
		c0,34.1,39.9,65.6,66.8,76.1c0.6,0.2,1.2,0.3,1.8,0.3c0.6,0,1.2-0.1,1.8-0.3c26.9-10.5,66.8-42,66.8-76.1
		C148.5,46.4,137.8,29.4,121.9,23.1z M56.3,82.4c1.5,0,2.9-0.6,3.8-1.8l9.2-12.1L86,98c0.8,1.3,2.2,2.2,4,2.2c1.5,0,2.9-0.6,3.8-1.8
		l12.1-16h29.7c-9.5,22.1-34.8,42-55.7,50.7c-20.8-8.7-46.1-28.6-55.7-50.7H56.3z M90.6,88L73.8,58.4c-0.8-1.3-2.2-2.2-3.7-2.2
		c-0.1,0-0.3,0-0.4,0c-1.4,0-2.8,0.7-3.7,1.8l-12.1,16H21.5c-0.7-2.8-1-5.7-1.1-8.6c0-15.8,8.5-29.7,21.1-34.7
		c3.2-1.2,6.5-1.9,9.9-1.9c0,0,0,0,0.1,0c8.2,0,17,3.5,25.4,10.3c1.8,1.4,4.2,1.4,6,0c12-9.6,24.6-12.6,35.3-8.4
		c12.6,4.9,21.1,18.9,21.1,34.7c0,2.9-0.4,5.8-1.1,8.6h-34.8c-1.4,0-2.9,0.6-3.8,1.8L90.6,88z"/>
</g>
<g id="Capa_4" class="st0">
	<g class="st3">
		<path class="st4" d="M112.6,19.6H53.7c-5.6,0-10.2,4.6-10.2,10.2v102.9c0,5.6,4.6,10.2,10.2,10.2h58.9c5.6,0,10.2-4.6,10.2-10.2
			V29.8C122.8,24.1,118.2,19.6,112.6,19.6z M114.8,29.8v102.9c0,1.2-1,2.2-2.2,2.2H53.7c-1.2,0-2.2-1-2.2-2.2V29.8
			c0-1.2,1-2.2,2.2-2.2h58.9C113.8,27.5,114.8,28.5,114.8,29.8z"/>
		<path class="st4" d="M83.2,114.9L83.2,114.9c-2.1,0-4,0.8-5.4,2.2c-1.4,1.4-2.2,3.4-2.2,5.4c0,2,0.8,4,2.2,5.4
			c1.4,1.4,3.4,2.2,5.4,2.2c4.2,0,7.7-3.4,7.7-7.7C90.8,118.4,87.4,114.9,83.2,114.9z"/>
		<path class="st4" d="M88.1,30.5h-9.9c-2.2,0-4,1.8-4,4c0,2.2,1.8,4,4,4h9.9c2.2,0,4-1.8,4-4C92.1,32.2,90.3,30.5,88.1,30.5z"/>
	</g>
</g>
<g id="Capa_5" class="st0">
	<g class="st3">
		<path class="st4" d="M154.5,75.7h0.7l-14.6-7.3l-26.4-32.9c-0.7-0.9-1.8-1.4-3-1.4H10.5c-2.1,0-3.9,1.7-3.9,3.9v73.9
			c0,2.1,1.7,3.9,3.9,3.9h16.7c1.8,8,8.9,13.4,16.9,13.4c1.1,0,2.3-0.1,3.5-0.4c6.7-1.4,11.9-6.5,13.4-13.1h40.2
			c2.1,9.1,11.1,15,20.3,13.1c6.7-1.4,11.9-6.5,13.4-13.1h16.7c2.1,0,3.9-1.7,3.9-3.9V78.2C155.5,77.3,155.1,76.4,154.5,75.7z
			 M101.7,67.6V41.7h7.7l20.7,25.9H101.7z M37.3,105c1.8-1.8,4.2-2.8,6.8-2.8c0,0,0,0,0,0c2.6,0,5,1,6.8,2.8
			c1.8,1.8,2.8,4.2,2.8,6.8c0,5.3-4.3,9.6-9.6,9.6c0,0,0,0,0,0c-5.3,0-9.6-4.3-9.6-9.6C34.5,109.2,35.5,106.8,37.3,105z M97.8,75.3
			h39.4l10.5,5.2l0,27.4h-12.9c-1-4.4-3.6-8.1-7.3-10.6c-3.9-2.5-8.5-3.4-13-2.5c-6.7,1.4-11.9,6.5-13.4,13.1H60.9
			c-1-4.4-3.6-8.1-7.3-10.6c-3.9-2.5-8.5-3.4-13-2.5c-6.7,1.4-11.9,6.5-13.4,13.1H14.3V41.7H94v29.7C94,73.6,95.7,75.3,97.8,75.3z
			 M127.6,111.8c0,5.3-4.3,9.6-9.6,9.6s-9.6-4.3-9.6-9.6s4.3-9.6,9.6-9.6S127.6,106.5,127.6,111.8z"/>
		<path class="st4" d="M64.2,64.3H58V58c0-2.1-1.7-3.9-3.9-3.9c-2.1,0-3.9,1.7-3.9,3.9v6.2h-6.2c-2.1,0-3.9,1.7-3.9,3.9
			c0,2.1,1.7,3.9,3.9,3.9h6.2v6.2c0,2.1,1.7,3.9,3.9,3.9c2.1,0,3.9-1.7,3.9-3.9V72h6.2c2.1,0,3.9-1.7,3.9-3.9
			C68.1,66,66.4,64.3,64.2,64.3z"/>
	</g>
</g>
<g id="Capa_6">
	<g>
		<path class="st4" d="M129.4,18.6H36.9c-2.3,0-4.1,1.8-4.1,4.1v117.1c0,2.3,1.8,4.1,4.1,4.1h92.5c2.3,0,4.1-1.8,4.1-4.1V22.6
			C133.5,20.4,131.6,18.6,129.4,18.6z M71.8,30.9v-4.2h22.7v4.2H71.8z M67.7,39.1h30.8c2.3,0,4.1-1.8,4.1-4.1v-8.2h22.7v109H41v-109
			h22.7V35C63.7,37.2,65.5,39.1,67.7,39.1z"/>
		<path class="st4" d="M51.3,102.8c0,2.3,1.8,4.1,4.1,4.1h55.5c1.1,0,2.1-0.4,2.9-1.2c0.8-0.8,1.2-1.8,1.2-2.9
			c0-2.2-1.8-4.1-4.1-4.1H55.4C53.2,98.7,51.3,100.5,51.3,102.8z"/>
		<path class="st4" d="M110.9,117.2H55.4c-1.1,0-2.1,0.4-2.9,1.2c-0.8,0.8-1.2,1.8-1.2,2.9c0,2.2,1.8,4.1,4.1,4.1h55.5
			c2.3,0,4.1-1.8,4.1-4.1C115,119,113.1,117.2,110.9,117.2z"/>
		<path class="st4" d="M58.7,66c-0.8,0.8-1.2,1.8-1.2,2.9c0,2.2,1.8,4.1,4.1,4.1h12.3c1.5,0,2.9-0.9,3.7-2.2l1.2-2.5l3.5,14
			c0.4,1.7,1.8,2.9,3.5,3.1c0.2,0,0.3,0,0.5,0c1.5,0,2.9-0.9,3.6-2.2l5-10.1h9.8c0,0,0,0,0,0c1.1,0,2.1-0.4,2.9-1.2
			c0.8-0.8,1.2-1.8,1.2-2.9c0-2.3-1.8-4.1-4.1-4.1l-12.3,0c-1.5,0-2.9,0.9-3.7,2.2l-1.2,2.5l-3.5-14c-0.5-2.2-2.8-3.5-5-3
			c-1.2,0.3-2.1,1.1-2.7,2.1l-5,10.1h-9.8C60.5,64.8,59.5,65.2,58.7,66z"/>
	</g>
</g>
<g id="Capa_7" class="st0">
	<path class="st2" d="M126.7,87.3L126.7,87.3c0-20.6-16.3-37.7-36.6-39l6.8-11.7c0.5-0.9,0.7-2,0.4-3.1c-0.3-1-0.9-1.9-1.9-2.5
		l-6.6-3.8l3.8-6.6c1.1-1.9,0.5-4.4-1.5-5.5s-4.4-0.5-5.5,1.5l-3.8,6.6l-6.6-3.8c-1.9-1.1-4.4-0.5-5.5,1.5L43.3,66.3
		c-0.5,0.9-0.7,2-0.4,3.1c0.3,1,0.9,1.9,1.9,2.5L65,83.5c1.9,1.1,4.4,0.5,5.5-1.4l14.9-25.9h2.2c0,0,0.1,0,0.1,0
		c8.2,0,16,3.2,21.9,9c5.9,5.8,9.1,13.6,9.1,21.9c0,8.3-3.2,16.1-9,21.9c-5.8,5.9-13.6,9.1-21.9,9.1c0,0-0.1,0-0.1,0
		c-8.5,0-16.4-3.4-22.3-9.4h10.5c2.2,0,4.1-1.8,4.1-4.1s-1.8-4.1-4.1-4.1H40.9c-2.2,0-4.1,1.8-4.1,4.1s1.8,4.1,4.1,4.1h14.2
		c6.4,9.6,17,16,28.5,17.2v9.7H64.2c-2.2,0-4.1,1.8-4.1,4.1c0,2.2,1.8,4.1,4.1,4.1H111c2.2,0,4.1-1.8,4.1-4.1c0-2.2-1.8-4.1-4.1-4.1
		H91.6v-9.7C111.4,124,126.7,107.2,126.7,87.3z M87.8,36L65.6,74.5l-13.2-7.6l22.2-38.5L87.8,36z"/>
</g>
<g id="Capa_8" class="st0">
	<g class="st3">
		<path class="st4" d="M127.5,14.7H32.9c-2.4,0-4.4,2-4.4,4.4V139c0,2.4,2,4.4,4.4,4.4h94.6c2.4,0,4.4-2,4.4-4.4V19.1
			C131.9,16.7,129.9,14.7,127.5,14.7z M123.1,23.5v111.1H37.3V23.5H123.1z"/>
		<path class="st4" d="M51.8,85.3h56.8c1.2,0,2.3-0.5,3.1-1.3c0.8-0.8,1.3-1.9,1.3-3.1c0-2.4-2-4.4-4.4-4.4H51.8
			c-2.4,0-4.4,2-4.4,4.4C47.4,83.4,49.4,85.3,51.8,85.3z"/>
		<path class="st4" d="M51.8,65.2h56.8c1.2,0,2.3-0.5,3.1-1.3s1.3-1.9,1.3-3.1c0-2.4-2-4.4-4.4-4.4H51.8c-2.4,0-4.4,2-4.4,4.4
			C47.4,63.2,49.4,65.2,51.8,65.2z"/>
		<path class="st4" d="M51.8,45.3h30.9c2.4,0,4.4-2,4.4-4.4c0-2.4-2-4.4-4.4-4.4H51.8c-2.4,0-4.4,2-4.4,4.4
			C47.4,43.3,49.4,45.3,51.8,45.3z"/>
		<path class="st4" d="M51.8,106.1h30.9c2.4,0,4.4-2,4.4-4.4c0-2.4-2-4.4-4.4-4.4H51.8c-2.4,0-4.4,2-4.4,4.4
			C47.4,104.2,49.4,106.1,51.8,106.1z"/>
		<path class="st4" d="M108.6,115.7H51.8c-1.2,0-2.3,0.5-3.1,1.3c-0.8,0.8-1.3,1.9-1.3,3.1c0,2.4,2,4.4,4.4,4.4h56.8
			c1.2,0,2.3-0.5,3.1-1.3c0.8-0.8,1.3-1.9,1.3-3.1C113,117.6,111,115.7,108.6,115.7z"/>
	</g>
</g>
</svg>
